<?xml version="1.0" encoding="utf-8"?>
<!-- Generator: Adobe Illustrator 16.0.0, SVG Export Plug-In . SVG Version: 6.00 Build 0)  -->
<!DOCTYPE svg PUBLIC "-//W3C//DTD SVG 1.1//EN" "http://www.w3.org/Graphics/SVG/1.1/DTD/svg11.dtd">
<svg version="1.1" id="Layer_1" xmlns="http://www.w3.org/2000/svg" xmlns:xlink="http://www.w3.org/1999/xlink" x="0px" y="0px"
	 width="399.403px" height="37.728px" viewBox="0 0 399.403 37.728" enable-background="new 0 0 399.403 37.728"
	 xml:space="preserve">
<g>
	<path d="M25.632,26.544l0.864,9.696c-2.464,0.992-5.504,1.488-9.12,1.488c-3.424,0-6.256-0.376-8.496-1.128
		c-2.24-0.751-4.017-1.896-5.328-3.432c-1.313-1.536-2.232-3.488-2.76-5.856C0.264,24.944,0,22.144,0,18.912
		c0-3.136,0.248-5.88,0.744-8.232C1.24,8.328,2.128,6.36,3.408,4.776C4.688,3.192,6.424,2,8.616,1.2C10.808,0.4,13.584,0,16.944,0
		c0.735,0,1.56,0.04,2.472,0.12c0.912,0.081,1.808,0.185,2.688,0.312c0.88,0.128,1.711,0.281,2.496,0.456
		c0.784,0.176,1.416,0.376,1.896,0.6l-1.728,8.832c-2.561-0.544-4.848-0.816-6.864-0.816c-2.081,0-3.521,0.192-4.32,0.576
		c-0.8,0.384-1.2,1.152-1.2,2.304v15.072c0.736,0.161,1.479,0.281,2.232,0.36c0.751,0.08,1.528,0.12,2.328,0.12
		C20.144,27.936,23.04,27.472,25.632,26.544z"/>
	<path d="M53.567,36.864h-23.04v-36h11.52v26.784h11.52V36.864z"/>
	<path d="M65.328,36.864H53.184l9.312-36h17.808l9.312,36H77.472l-1.344-5.712h-9.504L65.328,36.864z M71.087,11.904l-2.352,10.08
		h5.28l-2.304-10.08H71.087z"/>
	<path d="M110.831,28.176h-7.488v8.688h-11.52v-36h18.144c8.256,0,12.384,4.433,12.384,13.296c0,1.952-0.192,3.776-0.576,5.472
		c-0.384,1.696-1.032,3.176-1.944,4.44c-0.912,1.265-2.096,2.264-3.552,3C114.822,27.808,113.006,28.176,110.831,28.176z
		 M105.982,10.08h-2.64v8.88h2.64c1.408,0,2.424-0.144,3.048-0.432s0.936-0.96,0.936-2.016V12.48c0-1.024-0.312-1.68-0.936-1.968
		S107.39,10.08,105.982,10.08z"/>
	<path d="M144.814,28.176h-7.488v8.688h-11.52v-36h18.144c8.256,0,12.384,4.433,12.384,13.296c0,1.952-0.192,3.776-0.576,5.472
		c-0.384,1.696-1.032,3.176-1.944,4.44c-0.912,1.265-2.096,2.264-3.552,3C148.806,27.808,146.99,28.176,144.814,28.176z
		 M139.966,10.08h-2.64v8.88h2.64c1.408,0,2.424-0.144,3.048-0.432s0.936-0.96,0.936-2.016V12.48c0-1.024-0.312-1.68-0.936-1.968
		S141.374,10.08,139.966,10.08z"/>
	<path d="M158.062,18.912c0-3.295,0.28-6.136,0.84-8.52c0.559-2.383,1.503-4.344,2.832-5.88c1.327-1.536,3.079-2.671,5.256-3.408
		C169.166,0.368,171.854,0,175.054,0c3.232,0,5.928,0.368,8.088,1.104c2.16,0.736,3.904,1.872,5.232,3.408
		c1.328,1.536,2.272,3.497,2.832,5.88c0.56,2.384,0.84,5.225,0.84,8.52c0,3.137-0.257,5.88-0.768,8.232
		c-0.512,2.352-1.416,4.313-2.712,5.88c-1.296,1.568-3.04,2.744-5.232,3.528s-4.952,1.176-8.28,1.176
		c-3.329,0-6.088-0.392-8.28-1.176s-3.936-1.96-5.232-3.528c-1.296-1.568-2.2-3.528-2.712-5.88
		C158.318,24.792,158.062,22.048,158.062,18.912z M170.446,12.912v14.976h4.8c1.6,0,2.744-0.184,3.432-0.552
		c0.688-0.368,1.032-1.208,1.032-2.52V9.84h-4.848c-1.536,0-2.657,0.185-3.36,0.552C170.798,10.76,170.446,11.6,170.446,12.912z"/>
	<path d="M221.23,24.864l6.24,12h-12.674l-4.703-10.704h-2.496v10.704h-11.52v-36h18.145c8.256,0,12.383,4.208,12.383,12.624
		C226.605,19.248,224.813,23.04,221.23,24.864z M210.238,10.08h-2.64v7.2h2.64c1.408,0,2.424-0.144,3.048-0.432
		s0.937-0.943,0.937-1.968v-2.4c0-1.024-0.313-1.68-0.937-1.968S211.646,10.08,210.238,10.08z"/>
	<path d="M257.133,10.08h-8.352v26.784h-11.521V10.08h-8.352V0.864h28.224V10.08z"/>
	<path d="M281.613,23.52h-9.792v13.344h-11.521v-36h23.616l-1.44,9.216h-10.655v4.848h9.792V23.52z"/>
	<path d="M285.645,18.912c0-3.295,0.279-6.136,0.84-8.52c0.56-2.383,1.504-4.344,2.832-5.88c1.327-1.536,3.079-2.671,5.256-3.408
		C296.748,0.368,299.436,0,302.636,0c3.232,0,5.929,0.368,8.089,1.104c2.159,0.736,3.903,1.872,5.231,3.408
		c1.327,1.536,2.271,3.497,2.832,5.88c0.56,2.384,0.84,5.225,0.84,8.52c0,3.137-0.256,5.88-0.768,8.232
		c-0.513,2.352-1.416,4.313-2.712,5.88s-3.041,2.744-5.232,3.528c-2.192,0.784-4.952,1.176-8.28,1.176s-6.088-0.392-8.279-1.176
		c-2.192-0.784-3.937-1.96-5.232-3.528s-2.2-3.528-2.712-5.88C285.9,24.792,285.645,22.048,285.645,18.912z M298.028,12.912v14.976
		h4.8c1.6,0,2.743-0.184,3.432-0.552c0.688-0.368,1.032-1.208,1.032-2.52V9.84h-4.848c-1.536,0-2.656,0.185-3.36,0.552
		C298.38,10.76,298.028,11.6,298.028,12.912z"/>
	<path d="M346.7,36.864h-23.04v-36h11.521v26.784h11.52V36.864z"/>
	<path d="M349.868,36.864v-36h11.521v36H349.868z"/>
	<path d="M365.42,18.912c0-3.295,0.279-6.136,0.84-8.52c0.56-2.383,1.504-4.344,2.832-5.88c1.327-1.536,3.079-2.671,5.256-3.408
		C376.523,0.368,379.211,0,382.411,0c3.232,0,5.929,0.368,8.089,1.104c2.159,0.736,3.903,1.872,5.231,3.408
		c1.327,1.536,2.271,3.497,2.832,5.88c0.56,2.384,0.84,5.225,0.84,8.52c0,3.137-0.256,5.88-0.768,8.232
		c-0.513,2.352-1.416,4.313-2.712,5.88s-3.041,2.744-5.232,3.528c-2.192,0.784-4.952,1.176-8.28,1.176s-6.088-0.392-8.279-1.176
		c-2.192-0.784-3.937-1.96-5.232-3.528s-2.2-3.528-2.712-5.88C365.676,24.792,365.42,22.048,365.42,18.912z M377.804,12.912v14.976
		h4.8c1.6,0,2.743-0.184,3.432-0.552c0.688-0.368,1.032-1.208,1.032-2.52V9.84h-4.848c-1.536,0-2.656,0.185-3.36,0.552
		C378.155,10.76,377.804,11.6,377.804,12.912z"/>
</g>
</svg>
