<?xml version="1.0" encoding="utf-8"?>
<!-- Generator: Adobe Illustrator 16.0.0, SVG Export Plug-In . SVG Version: 6.00 Build 0)  -->
<!DOCTYPE svg PUBLIC "-//W3C//DTD SVG 1.1//EN" "http://www.w3.org/Graphics/SVG/1.1/DTD/svg11.dtd">
<svg version="1.1" id="Capa_1" xmlns="http://www.w3.org/2000/svg" xmlns:xlink="http://www.w3.org/1999/xlink" x="0px" y="0px"
	 width="612.012px" height="612.012px" viewBox="0 0 612.012 612.012" enable-background="new 0 0 612.012 612.012"
	 xml:space="preserve">
<g>
	<g>
		<path d="M346.758,611.991h-81.581c-12.623,0-22.899-10.271-22.899-22.899v-53.978c-18.608-5.162-36.445-12.59-53.205-22.146
			l-38.23,38.226c-8.67,8.67-23.747,8.664-32.404-0.007l-57.648-57.668c-4.335-4.327-6.726-10.077-6.719-16.198
			c0-6.113,2.391-11.863,6.726-16.187l38.913-38.927c-9.135-16.594-16.186-34.193-21.05-52.516H22.854
			C10.251,369.691,0,359.428,0,346.799v-81.567c0-12.629,10.251-22.905,22.854-22.905H80.49
			c5.208-17.48,12.463-34.297,21.643-50.152L60.798,150.84c-4.31-4.265-6.707-9.996-6.719-16.103
			c-0.013-6.133,2.372-11.896,6.726-16.243l57.642-57.712c8.727-8.625,23.715-8.612,32.366-0.038l42.591,42.591
			c15.517-8.428,31.9-15.058,48.883-19.781v-60.67c-0.008-12.612,10.262-22.862,22.891-22.862h81.58
			c12.629,0,22.904,10.25,22.904,22.86v61.11c16.793,4.807,32.998,11.488,48.336,19.928l43.152-43.146
			c8.609-8.613,23.738-8.619,32.346-0.006l57.713,57.725c8.904,8.963,8.898,23.466-0.008,32.346l-42.398,42.406
			c8.873,15.523,15.912,31.977,21.014,49.074h59.246c12.648,0,22.949,10.27,22.949,22.905v81.574
			c0,12.623-10.295,22.894-22.949,22.894h-57.42c-4.762,17.926-11.619,35.17-20.463,51.399l40.029,40.047
			c8.893,8.927,8.893,23.44,0.018,32.358l-57.725,57.693c-8.568,8.639-23.771,8.663-32.385-0.031l-38.836-38.851
			c-16.613,9.621-34.258,17.117-52.619,22.357v54.416C369.657,601.719,359.387,611.991,346.758,611.991z M186.135,488.872
			l6.432,3.945c19.062,11.711,39.761,20.323,61.531,25.614l7.306,1.771v68.896c0,2.078,1.696,3.772,3.774,3.772h81.581
			c2.117,0,3.779-1.657,3.779-3.772v-69.213l7.236-1.815c21.482-5.396,41.984-14.109,60.938-25.902l6.451-4.016l49.516,49.532
			c0.963,0.976,2.078,1.115,2.658,1.115c0.572,0,1.689-0.136,2.619-1.084l57.738-57.705c1.453-1.461,1.459-3.871-0.021-5.351
			l-50.367-50.394l3.734-6.374c10.92-18.621,18.934-38.779,23.811-59.906l1.723-7.408h72.496c2.109,0,3.824-1.688,3.824-3.768
			v-81.579c0-2.085-1.715-3.78-3.824-3.78H515.19l-1.883-7.121c-5.354-20.298-13.652-39.665-24.67-57.578l-3.959-6.433
			l52.994-53.001c1.461-1.46,1.453-3.844-0.02-5.317l-57.688-57.699c-0.932-0.931-2.064-1.078-2.65-1.078
			c-0.596,0-1.73,0.14-2.664,1.084l-53.553,53.549l-6.387-3.787c-17.805-10.544-36.969-18.449-56.961-23.473l-7.229-1.817v-75.9
			c0.008-2.091-1.65-3.736-3.77-3.736h-81.58c-2.078,0-3.774,1.677-3.774,3.736v75.568l-7.306,1.779
			c-20.189,4.909-39.531,12.724-57.502,23.243l-6.369,3.729L137.31,74.288c-0.937-0.931-2.084-1.077-2.677-1.077
			c-0.599,0-1.734,0.146-2.709,1.109L74.31,132.007c-0.975,0.976-1.122,2.091-1.122,2.671c0,0.574,0.141,1.664,1.084,2.594
			l52.02,52.013l-4.016,6.452c-11.348,18.226-19.858,37.937-25.309,58.579l-1.875,7.121H22.854
			c-2.053,0.013-3.729,1.702-3.729,3.793v81.573c0,2.078,1.676,3.768,3.729,3.768h70.902l1.715,7.414
			c4.947,21.49,13.158,41.998,24.39,60.957l3.787,6.39l-49.33,49.343c-0.969,0.969-1.116,2.084-1.116,2.663
			c0,0.58,0.141,1.703,1.109,2.664l57.661,57.683c0.969,0.97,2.091,1.115,2.678,1.115c0.58,0,1.708-0.142,2.677-1.115
			L186.135,488.872z M305.997,446.249c-77.328,0-140.242-62.907-140.242-140.229c0-77.328,62.914-140.242,140.242-140.242
			c77.328,0,140.236,62.914,140.236,140.242C446.233,383.34,383.325,446.249,305.997,446.249z M305.997,184.901
			c-66.791,0-121.118,54.327-121.118,121.117c0,66.777,54.327,121.104,121.118,121.104c66.783,0,121.111-54.327,121.111-121.104
			C427.108,239.229,372.78,184.901,305.997,184.901z"/>
	</g>
</g>
<rect x="282.466" y="-83.419" transform="matrix(0.7021 0.7121 -0.7121 0.7021 308.4565 -121.1097)" stroke="#000000" stroke-miterlimit="10" width="33.001" height="783.001"/>
</svg>
